<?xml version="1.0" encoding="UTF-8"?>
<!-- Created with Inkscape (http://www.inkscape.org/) -->
<svg width="62.827mm" height="56.047mm" version="1.1" viewBox="0 0 62.827 56.047" xml:space="preserve" xmlns="http://www.w3.org/2000/svg"><g transform="translate(-71.625 -14.138)"><path d="m103.7 70.061c6.9725-0.1726 13.278-0.99818 19.328-2.5308 1.1386-0.28843 3.1906-0.86606 3.286-0.92502 0.0117-0.0072 0.0213-0.04225 0.0213-0.07777 0-0.04459-0.0148-0.06458-0.0477-0.06458-0.0262 0-0.34473 0.07061-0.70776 0.15691-3.4157 0.81195-6.9072 1.4503-10.278 1.8789-3.6768 0.46759-7.2761 0.74297-11.086 0.84816-1.2138 0.03351-4.5983 0.03364-5.7547 2.65e-4 -6.0846-0.17586-11.493-0.75353-17.224-1.8396-0.56753-0.10755-1.119-0.21393-1.2254-0.2364-0.26181-0.05525-0.26947-0.05424-0.26947 0.03544 0 0.05756 0.0146 0.07954 0.0595 0.08952 0.0327 0.0073 0.46435 0.1152 0.95912 0.23985 4.7388 1.1938 10.328 2.0172 15.65 2.3054 2.4343 0.13181 5.0613 0.17501 7.2893 0.11986zm-10.788-4.683c0.21864-0.07647 0.55334-0.31389 0.83428-0.5918 0.40709-0.40271 0.90183-1.0527 1.1276-1.4814 0.0899-0.17067 0.1078-0.22999 0.1078-0.3569 0-0.17772-0.0283-0.2157-0.16047-0.2157-0.12719 0-0.20039 0.06073-0.37705 0.31283-0.61836 0.88247-1.396 1.6486-1.6381 1.6139-0.11291-0.01618-0.11923-0.12471-0.0255-0.4388 0.0466-0.15622 0.15845-0.56979 0.24854-0.91904 0.15703-0.60878 0.16385-0.64865 0.16525-0.96573 2e-3 -0.40216-0.0454-0.57557-0.20624-0.75829-0.14005-0.15911-0.23073-0.19421-0.5017-0.19421-0.35713 0-0.65171 0.12989-0.99056 0.43676-0.091 0.08237-0.16537 0.1443-0.16537 0.13764 0-0.0067 0.0179-0.06274 0.0397-0.12461 0.0622-0.17618 0.0527-0.2259-0.0523-0.27573-0.15965-0.07576-0.40536-0.08325-0.61266-0.01868-0.0999 0.03113-0.20364 0.07351-0.23041 0.09417-0.0503 0.03883-0.13417 0.33553-0.27238 0.96375-0.082 0.37261-0.092 0.38894-0.56358 0.91465-0.53874 0.60064-1.168 1.096-1.3575 1.0686-0.0901-0.01301-0.17886-0.16721-0.1784-0.30993 7.1e-4 -0.2217 0.1274-0.67276 0.54398-1.9367 0.13716-0.41614 0.24938-0.79416 0.24938-0.84005v-0.08343h-0.22317c-0.25304 0-0.56919 0.0585-0.68857 0.12742-0.30795 0.17777-0.64113 1.6399-0.61816 2.7127 8e-3 0.38568 0.0151 0.43878 0.0703 0.54259 0.0942 0.17736 0.25837 0.3385 0.43471 0.42661 0.14144 0.07068 0.18722 0.08008 0.38993 0.08008 0.20177 0 0.24867-0.0095 0.38603-0.07843 0.21572-0.10821 0.46901-0.31442 0.85434-0.69558 0.18016-0.17821 0.32045-0.3002 0.31177-0.27109-0.0942 0.31557-0.22899 0.89756-0.22909 0.98881l-2.7e-4 0.11568 0.23151-0.01147c0.19145-0.0095 0.26196-0.02608 0.40743-0.09591 0.28969-0.13906 0.30825-0.1722 0.45484-0.81245 0.23065-1.0073 0.23727-1.0275 0.41981-1.2814 0.37544-0.52215 0.69395-0.8359 0.93236-0.91845 0.116-0.04016 0.16801-0.0045 0.20018 0.13736 0.0427 0.18831-0.0403 0.60952-0.29345 1.4886-0.22187 0.77055-0.20909 1.0934 0.0537 1.3562 0.0865 0.08654 0.16935 0.14058 0.25641 0.16732 0.18922 0.05812 0.48323 0.05379 0.66503-0.0098zm-3.8365-5.3007c0.14605-0.10122 0.23784-0.2418 0.27101-0.4151 0.0498-0.26007-0.0292-0.59111-0.15751-0.65975-0.0281-0.01504-0.11606-0.02734-0.19546-0.02734-0.12027 0-0.16583 0.01472-0.27294 0.0882-0.39927 0.27391-0.50164 0.76105-0.216 1.0279 0.0812 0.07584 0.0947 0.07929 0.27434 0.07022 0.15482-0.0078 0.20839-0.02301 0.29656-0.08411zm1.7523-6.632v-0.84667h-4.736v-7.5406h4.2333v-1.7198h-4.2333v-7.2231h4.6567v-1.6933h-6.5352v19.87h6.6146zm10.319 0v-0.84667h-4.5508v-18.177h-1.8785v19.87h6.4294zm5.5298-9.0884v-9.9351h-1.8785v19.87h1.8785zm11.192 9.0886v-0.84654l-5.4961-0.0134 5.4961-17.113v-1.0504h-7.1438v1.6933h4.9513l-0.0187 0.05953c-0.0103 0.03274-1.2493 3.886-2.7534 8.5628l-2.7348 8.5032v1.0513h7.6994zm5.424-9.0886v-9.9351h-1.8785v19.87h1.8785zm11.06 9.0884v-0.84667h-4.736v-7.5406h4.2333v-1.7198h-4.2333v-7.2231h4.6567v-1.6933h-6.5352v19.87h6.6146zm-60.404-21.378v-0.3175h-1.5081v-6.0325h-0.71437v6.6675h2.2225zm3.5719 0v-0.3175h-1.561v-2.4077h1.4023v-0.66146h-1.4023v-2.3019h1.5346v-0.66146h-2.249v6.6675h2.2754zm21.698-4.8044c1e-3 -0.03082 8e-3 -0.03709 0.016-0.01599 8e-3 0.0191 7e-3 0.04192-2e-3 0.05071-9e-3 0.0088-0.015-0.0068-0.0139-0.03473zm-0.0244-0.14332c0-0.03638 6e-3 -0.05126 0.0133-0.03307 7e-3 0.01819 7e-3 0.04796 0 0.06615s-0.0133 0.0033-0.0133-0.03307zm-0.0909-0.38507c-0.11156-0.45629-0.2729-0.9389-0.44554-1.3327-0.0856-0.19534-0.1557-0.35806-0.1557-0.36162 0-0.01496 0.50986-0.1732 0.75406-0.23403 0.3548-0.08839 0.92642-0.18952 1.3626-0.24108 0.50434-0.05962 1.491-0.07919 2.0299-0.04028 0.79216 0.05721 0.75134 0.068-0.25717 0.068-1.2543 0-1.9398 0.06259-2.8972 0.26458-0.59177 0.12484-0.84392 0.20079-0.85479 0.25747-5e-3 0.02519 0.0506 0.19188 0.12319 0.37042 0.1541 0.379 0.26066 0.72672 0.36065 1.1769 0.0918 0.4133 0.0767 0.46791-0.02 0.07236zm7.151-2.848c0.47858-0.24264 0.95827-0.65164 1.2283-1.0473 0.0716-0.10496 0.13482-0.18626 0.14042-0.18066 6e-3 0.0056-0.0411 0.09721-0.10378 0.20358-0.23644 0.40123-0.78688 0.87719-1.2069 1.0436-0.26602 0.1054-0.2889 0.0978-0.058-0.01927zm-7.9146-0.17523c-0.39206-0.19696-0.77677-0.51598-1.0366-0.85959-0.17334-0.22925-0.28164-0.40568-0.14933-0.24329 0.0474 0.05821 0.23632 0.25503 0.41977 0.43738 0.29954 0.29774 0.52204 0.47028 0.94379 0.73184 0.10233 0.06346 0.0182 0.03206-0.17764-0.06635zm5.9241-0.45126c0.41899-0.42501 0.72488-1.016 0.85415-1.6504 0.0303-0.14868 0.0612-0.2764 0.0686-0.28383 0.0206-0.02058-0.0174 0.30536-0.0615 0.52691-0.11435 0.57531-0.46721 1.1452-0.93479 1.5098-0.0896 0.06985-0.0715 0.04468 0.0735-0.10245zm-3.4818-0.1246c-0.39253-0.36467-0.67829-0.80919-0.85361-1.3278-0.0422-0.12481-0.0734-0.23024-0.0694-0.23427 4e-3 -4e-3 0.0588 0.1115 0.12169 0.25675 0.20622 0.47628 0.51964 0.953 0.8724 1.3269 0.0929 0.09845 0.16345 0.179 0.15683 0.179-7e-3 0-0.1092-0.09027-0.22795-0.20059zm12.707 3.9015c-0.13339 0.0012-0.26912 0.02083-0.34675 0.05839-0.15374 0.07442-0.33797 0.28556-0.39688 0.45475-0.07 0.20103-0.0646 0.54736 0.0114 0.7152l0.0579 0.12712-0.0977 0.08475c-0.19757 0.17138-0.34096 0.3444-0.43201 0.5209-0.05 0.097-0.0634 0.17054-0.0713 0.39688-9e-3 0.24954-3e-3 0.28996 0.0517 0.39636 0.10259 0.1984 0.27651 0.2671 0.64337 0.25476 0.15519-0.0052 0.24159-0.02234 0.32349-0.0646 0.17489-0.09025 0.28877-0.20586 0.37621-0.38086 0.0732-0.14647 0.0806-0.18492 0.0806-0.41755 0-0.26771-0.0483-0.46664-0.15864-0.65371l-0.0522-0.08888 0.19276-0.19069c0.26109-0.25804 0.36233-0.45915 0.36173-0.71779-5.3e-4 -0.22457-0.0683-0.36704-0.21084-0.44287-0.0682-0.0363-0.19941-0.05335-0.33279-0.05219zm-1.973 0.0031c-0.18796 0-0.24647 0.01102-0.36122 0.06821-0.3634 0.18109-0.64079 0.72446-0.64079 1.2552 0 0.38925 0.11564 0.68615 0.28577 0.73381 0.13931 0.03903 0.39065 0.01822 0.50592-0.04186l0.10955-0.05736-0.0961 0.15244c-0.17837 0.28227-0.37657 0.45102-0.4687 0.39946-0.0599-0.03354-0.1509-0.21399-0.1509-0.29921 0-0.05611-0.0124-0.06718-0.0749-0.06718-0.20061 0-0.34283 0.40574-0.22737 0.64906 0.0437 0.09208 0.13017 0.1619 0.24701 0.19999 0.10641 0.03469 0.35815 0.0045 0.49764-0.05995 0.0695-0.03211 0.20463-0.13721 0.30024-0.23358 0.48439-0.48823 0.75615-1.6082 0.56121-2.313-0.0312-0.113-0.0743-0.18864-0.15348-0.2713l-0.10955-0.11472zm-1.6097 0.02687c-0.10171 0.0016-0.1266 0.01967-0.29146 0.17518-0.21863 0.20625-0.23757 0.27894-0.10232 0.39274l0.0832 0.07028-0.0331 0.19017c-0.0629 0.36022-0.19232 0.9053-0.32143 1.3534-0.12997 0.45108-0.15259 0.60893-0.1018 0.70383 0.0237 0.04428 0.0564 0.05099 0.24443 0.05064 0.11954-2.12e-4 0.2334-0.0107 0.25321-0.02325h5.2e-4c0.0277-0.01755 0.0306-0.05549 0.0139-0.16485-0.0119-0.07818-0.0178-0.18984-0.0134-0.24805 4e-3 -0.05821 0.12582-0.58219 0.26975-1.1643s0.26188-1.0931 0.262-1.1358c3.4e-4 -0.12442-0.091-0.19999-0.24185-0.19999-8e-3 0-0.0149-1.09e-4 -0.0217 0zm5.6606 0.0031c-0.0842 3.84e-4 -0.18806 0.0032-0.31678 0.0062-0.29832 0.0069-0.58728 0.02591-0.64182 0.04237-0.14155 0.04271-0.18279 0.13626-0.17312 0.39222 7e-3 0.1869 0.0128 0.20488 0.0656 0.21239 0.0317 0.0045 0.10307-0.02161 0.15865-0.05788 0.14675-0.09577 0.40272-0.17358 0.63562-0.19327l0.20309-0.01705-0.1292 0.18293c-0.47322 0.66986-0.75384 1.1636-0.95756 1.6847-0.0767 0.1961-0.0962 0.28246-0.0982 0.43718-2e-3 0.14448 7e-3 0.19867 0.0372 0.21756 0.045 0.02858 0.32331 0.03039 0.42323 0.0026 0.0612-0.01702 0.0666-0.03101 0.0703-0.18914 9e-3 -0.36366 0.43559-1.2773 0.94051-2.0118l0.15607-0.22686-8e-3 -0.20877c-9e-3 -0.23454-4.9e-4 -0.27503-0.36535-0.27337zm-2.0691 0.24598c0.0672-0.0016 0.12712 0.03439 0.16278 0.11266 0.0429 0.09423-0.0252 0.22033-0.23978 0.44493l-0.17673 0.18552-0.032-0.07958h-5.2e-4c-0.061-0.1522-0.062-0.31289-2e-3 -0.42943 0.0759-0.14886 0.19008-0.23172 0.28835-0.23409zm-1.9952 0.04186c8e-4 -1.05e-4 1e-3 0 2e-3 0 0.0613 0 0.11951 0.1091 0.14625 0.27337 0.0328 0.20174 0.0101 0.32969-0.0605 0.34003-0.0412 6e-3 -0.0656 0.04467-0.0982 0.154-0.0905 0.30308-0.27986 0.60823-0.37724 0.60823-0.0204 0-0.0559-0.02086-0.0791-0.04651s-0.0573-0.10255-0.0755-0.17053c-0.0701-0.2621 0.12623-0.80533 0.37517-1.0382 0.0685-0.0641 0.14228-0.11717 0.16691-0.12041zm1.5389 1.3906c0.0196 1e-3 0.037 0.03443 0.0811 0.12144 0.10027 0.19755 0.1176 0.44736 0.0413 0.59686-0.0608 0.11922-0.17062 0.20992-0.29817 0.2465-0.0718 0.02058-0.0921 0.01389-0.15865-0.05271-0.0736-0.07363-0.0884-0.12418-0.077-0.26562 0.0103-0.12839 0.22451-0.48917 0.36691-0.61805 0.0197-0.01785 0.0327-0.02905 0.0444-0.02842zm-21.785-1.7601c-0.13463 6.67e-4 -0.20434 0.01416-0.31936 0.05116-0.0993 0.03194-0.22372 0.09347-0.27646 0.13694l-0.0956 0.07906v0.45217l0.0925-0.01085c0.11585-0.01353 0.11576-0.01409 0.0253 0.5209-0.1327 0.78521-0.32783 1.5323-0.47543 1.82-0.11622 0.22654-0.11733 0.28799-6e-3 0.3731 0.19414 0.14807 0.29971 0.17711 0.6165 0.16898 0.28685-0.0074 0.29818-0.01011 0.52917-0.12454h5.2e-4c0.53817-0.2666 1.0217-0.9425 1.1601-1.6216 0.09-0.44155 0.034-0.98456-0.13384-1.2929-0.0949-0.17433-0.31883-0.38142-0.50591-0.46819-0.12986-0.06023-0.19605-0.07187-0.45114-0.08061-0.0635-0.0022-0.11532-0.0038-0.1602-0.0036zm4.4628 0.185c-0.0749 0.0014-0.15205 0.01035-0.19947 0.02687-0.077 0.02685-0.0804 0.03508-0.093 0.21859-7e-3 0.10473-0.12801 0.6736-0.2682 1.2645-0.14018 0.59092-0.25476 1.0947-0.25476 1.1193 0 0.08796 0.121 0.17458 0.24339 0.17415 0.0625-2.12e-4 0.1282-0.0095 0.14573-0.02067 0.0175-0.01114 0.13301-0.41268 0.25632-0.89245 0.12331-0.47977 0.26634-1.0368 0.31832-1.2377 0.0981-0.37914 0.11745-0.56732 0.0631-0.62167-0.0221-0.02204-0.115-0.03282-0.21136-0.03101zm-4.3326 0.23203c0.0525-2e-3 0.10134 0.0043 0.14728 0.01809 0.18023 0.05424 0.2878 0.15223 0.3855 0.35088 0.0854 0.17376 0.0871 0.18597 0.0853 0.50901-2e-3 0.38879-0.0612 0.65273-0.22428 1.0015-0.19762 0.42264-0.45094 0.71078-0.75241 0.85473-0.17427 0.08321-0.27196 0.09575-0.29403 0.03824-8e-3 -0.02056 0.0455-0.24996 0.11833-0.50953 0.26402-0.94023 0.42685-1.686 0.42685-1.9544v-0.17105h-0.10232c-0.0564 0-0.17034 0.03001-0.25321 0.06666-0.19707 0.08715-0.16345 0.03506 0.0465-0.07183 0.16632-0.08467 0.30089-0.12792 0.41651-0.13229zm2.4593 0.7984c-0.18215 0.0036-0.36754 0.10768-0.56379 0.31574-0.1996 0.21159-0.31589 0.42993-0.37775 0.70797-0.0688 0.30912-0.0181 0.61746 0.1142 0.69453 0.0887 0.05166 0.37972 0.03296 0.52245-0.03359 0.0728-0.03392 0.14901-0.08127 0.16898-0.10542 0.0455-0.05507 0.0827-0.05652 0.0827-0.0031 0 0.02249 0.0289 0.07021 0.0646 0.10594 0.0548 0.05475 0.0904 0.0646 0.22634 0.0646 0.0887 0 0.19325-0.01654 0.23255-0.03721 0.11571-0.06084 0.3829-0.36143 0.61081-0.68781 0.11917-0.17066 0.14942-0.33843 0.0672-0.37-0.10438-0.04005-0.16852-0.01452-0.26768 0.10697-0.48744 0.59717-0.54865 0.65844-0.59118 0.58963-0.0102-0.01656 0.0156-0.19137 0.0574-0.38861 0.0418-0.19723 0.076-0.41633 0.076-0.48679 0-0.11048-7e-3 -0.12816-0.0527-0.12816-0.043 0-0.0527-0.01787-0.0527-0.09457 0-0.12744-0.036-0.18531-0.13591-0.22014-0.0603-0.02104-0.12066-0.03118-0.18138-0.02997zm-0.15296 0.46767c9e-3 -0.0013 0.0123 0.01445 0.0155 0.04237 7e-3 0.05715 0.0223 0.07286 0.0729 0.07286 0.0725 0 0.0734 0.0038 0.0393 0.13229-0.0135 0.05093-0.038 0.14352-0.0543 0.20619-0.0322 0.12392-0.17724 0.30365-0.29456 0.36432-0.0682 0.03527-0.076 0.03408-0.10335-0.01705-0.057-0.10653 0.0437-0.41191 0.22169-0.67128 0.0617-0.08988 0.0891-0.12788 0.10284-0.12971zm32.617-10.903c0-0.07596-0.0487-0.09256-1.4023-0.47843-5.4406-1.5509-11.528-2.5463-17.793-2.9095-2.186-0.12674-3.4347-0.15476-6.1642-0.13832-2.3094 0.01391-2.7052 0.02397-4.3927 0.11174-5.5315 0.28768-11.593 1.1922-16.321 2.4353-0.24524 0.06449-0.45063 0.11725-0.4564 0.11725-6e-3 0-0.0105 0.02976-0.0105 0.06614 0 0.09208 0.0326 0.08945 0.83672-0.06739 5.378-1.049 10.515-1.6511 16.123-1.8899 3.0737-0.13087 6.5966-0.12128 9.7499 0.02655 4.1489 0.19451 8.4969 0.64576 12.241 1.2704 2.3689 0.39522 4.9037 0.90682 6.862 1.385 0.29104 0.07106 0.57381 0.13057 0.62838 0.13224 0.0882 0.0027 0.0992-0.0041 0.0992-0.06106zm-27.154 12.489c0.67119-0.30126 1.289-0.49002 1.9258-0.5883 0.27389-0.04228 0.48103-0.04901 1.5081-0.04901 1.0271 0 1.2342 0.0067 1.5081 0.04901 0.63671 0.09829 1.2546 0.28704 1.9258 0.5883 0.28577 0.12827 0.33793 0.14321 0.50011 0.14321 0.16927 0 0.18748-0.0059 0.27988-0.0906l0.0988-0.0906 2e-3 -0.8156c3e-3 -1.0863 0.0778-1.6767 0.31767-2.5154 0.14974-0.5235 0.44511-1.2639 0.63034-1.5799l0.0661-0.11284 0.37807-0.01521c0.56802-0.02286 0.95552-0.1408 1.3663-0.41587 0.55644-0.37258 0.92876-0.93079 1.0502-1.5745 0.0656-0.34756 0.0422-0.89424-0.0516-1.2108-0.29615-0.99869-1.1638-1.687-2.2218-1.7625-0.39273-0.02803-0.48046-0.09377-0.54502-0.40834-0.21696-1.0571-1.0703-1.9396-2.1397-2.2126-0.84202-0.21499-1.8621-0.06665-2.4353 0.35412-0.46743 0.34313-0.9882 0.34509-1.4542 0.0055-0.60122-0.43811-1.6188-0.57934-2.4916-0.34578-0.58133 0.15558-1.1439 0.52212-1.5117 0.98491-0.29067 0.36578-0.45444 0.70019-0.56544 1.1546-0.0965 0.39491-0.16498 0.44839-0.60765 0.47432-0.26541 0.01555-0.62548 0.11024-0.8731 0.22962-0.63689 0.30704-1.0895 0.83768-1.3016 1.526-0.0664 0.21562-0.0718 0.26778-0.0728 0.70899-9.8e-4 0.41963 6e-3 0.50141 0.0596 0.68792 0.20446 0.71268 0.71999 1.3065 1.3832 1.5932 0.32677 0.14128 0.57769 0.19508 1.0013 0.21471l0.38184 0.01769 0.12726 0.25135c0.63737 1.2589 0.92124 2.6123 0.87628 4.1778l-0.016 0.55625 0.10684 0.10684c0.1043 0.1043 0.1112 0.10684 0.29062 0.10684 0.16547 0 0.21557-0.01427 0.50283-0.14321zm-0.27809 28.255c-0.36226 0-0.47778 0.04736-0.56896 0.23358-0.0986 0.20139-0.18432 0.43806-0.28422 0.78496-0.0482 0.16735-0.0943 0.31206-0.10283 0.32194-0.0524 0.06126-0.71998 0.09548-1.2237 0.06253l-0.30851-0.02015-0.1142 0.10594c-0.10851 0.10122-0.11398 0.11374-0.11473 0.25942-7.4e-4 0.14221 5e-3 0.15598 0.0791 0.19947 0.0437 0.02571 0.20123 0.07837 0.35037 0.11679 0.2498 0.06435 0.30552 0.06917 0.70745 0.06098 0.3783-0.0077 0.43486-0.0039 0.42426 0.03049-0.0336 0.10916-0.21221 0.97484-0.32866 1.5927-0.26561 1.4092-0.3373 2.0291-0.26769 2.3265 0.079 0.3376 0.27168 0.59305 0.54881 0.72864 0.21009 0.10279 0.58413 0.12071 0.80098 0.03824 0.19151-0.07283 0.45362-0.27194 0.78807-0.59841 0.22687-0.22145 0.27371-0.25662 0.28267-0.21187 0.0743 0.3712 0.17148 0.5597 0.35346 0.6873 0.10286 0.07212 0.13865 0.08173 0.34727 0.08992 0.17648 0.0069 0.28174-0.0043 0.43563-0.04651 0.37102-0.10179 0.75681-0.33912 0.96894-0.59583l0.0956-0.11524 0.0331 0.16226c0.04 0.19554 0.11715 0.37832 0.1943 0.46044 0.11525 0.12268 0.44551 0.17142 0.73949 0.10904 0.31287-0.06638 0.5296-0.24435 0.99529-0.817 0.12426-0.1528 0.2342-0.28762 0.24443-0.29972 0.0102-0.0121 0.0394 0.07103 0.0646 0.185 0.10296 0.46561 0.29221 0.84784 0.47645 0.9617 0.20995 0.12976 0.44583 0.12994 0.64751 5.17e-4 0.26308-0.16882 0.8424-0.82442 1.294-1.464l0.20205-0.28577 0.14521 0.01499c0.19176 0.01953 0.65847-0.02616 0.87385-0.08578l0.17157-0.04754 6e-3 0.41806c4e-3 0.2424 0.0232 0.4977 0.046 0.6072 0.0833 0.3997 0.2767 0.67695 0.56586 0.81132 0.128 0.05948 0.19327 0.0706 0.45579 0.07906 0.34179 0.01104 0.53352-0.02436 0.77928-0.14469 0.43592-0.21345 0.80191-0.68638 1.001-1.2929l0.0698-0.21136 0.15917-0.06201c0.17588-0.0682 0.61984-0.32997 0.85731-0.5054 0.10963-0.08099 0.14857-0.09878 0.13746-0.06356-0.0519 0.1646-0.43977 1.8504-0.43977 1.9115 0 0.10933 0.10295 0.2456 0.23823 0.31523 0.15599 0.08029 0.47203 0.07529 0.5519-0.0088 0.0344-0.03616 0.15412-0.46233 0.38603-1.3751 0.18486-0.7276 0.47969-1.8767 0.65525-2.5533s0.37104-1.4325 0.4346-1.6795c0.13762-0.53473 0.17551-0.90417 0.10594-1.0387-0.0358-0.06934-0.064-0.0861-0.16537-0.10129-0.15933-0.02389-0.40205 0.0022-0.64388 0.06925-0.30938 0.08573-0.29797 0.07193-0.27751 0.32401 0.0246 0.30322-0.02 0.60178-0.21549 1.4469-0.34944 1.511-0.42988 1.8296-0.47594 1.8805-0.0785 0.08676-0.54803 0.38718-0.86558 0.55397-0.16614 0.08726-0.30977 0.15865-0.31936 0.15865-0.01 0-0.0176-0.10563-0.0176-0.23461 0-0.31638-0.0346-0.48226-0.14986-0.71778-0.22034-0.4501-0.6708-0.74159-1.1446-0.74052-0.46352 1e-3 -0.92654 0.23639-1.0733 0.5457-0.0251 0.05286-0.0876 0.15098-0.13901 0.21808-0.0907 0.11846-0.28793 0.49626-0.34623 0.66352-0.0338 0.09698-0.15731 0.1596-0.47078 0.23978-0.19233 0.04919-0.48566 0.07038-0.51883 0.03721-8e-3 -0.0084 0.0332-0.10073 0.0925-0.20516 0.41975-0.73962 0.51635-1.3432 0.23048-1.4428-0.15233-0.0531-0.38299-0.03764-0.52762 0.03566-0.44223 0.22409-0.81834 0.99922-0.75396 1.5539l0.0181 0.15606-0.16278 0.26975c-0.28874 0.47866-0.80392 1.122-0.8785 1.0971-0.0555-0.01848-0.1458-0.2269-0.1974-0.45475-0.0995-0.43932-0.0588-0.95611 0.14056-1.7844 0.0514-0.21333 0.0993-0.4603 0.10645-0.54932 0.0118-0.14711 7e-3 -0.1659-0.0491-0.20516-0.1529-0.1071-0.66112-0.01224-0.82786 0.15451-0.16679 0.16678-0.26983 0.63714-0.29404 1.342l-0.0129 0.37827-0.27078 0.34262c-0.31475 0.39753-0.76063 0.86194-0.88987 0.92708-0.11132 0.05611-0.19317 0.02661-0.25476-0.0925-0.0696-0.13465-0.0519-0.29105 0.12815-1.1374 0.19212-0.90286 0.2386-1.1671 0.22531-1.2831-9e-3 -0.07766-0.0125-0.07966-0.1726-0.08733l-0.16381-0.0078 0.0279-0.07906c0.0152-0.04353 0.0228-0.16166 0.0171-0.26252-0.0129-0.229-0.0626-0.3036-0.2744-0.41031-0.14567-0.07338-0.17879-0.07928-0.43564-0.07855-0.24446 6.88e-4 -0.29613 0.0096-0.43046 0.07183-0.6921 0.32072-1.4042 1.1705-1.6831 2.0087-0.0499 0.14984-0.0964 0.2182-0.31678 0.46302-0.45686 0.50762-0.91732 0.88414-1.1296 0.92398-0.15709 0.02947-0.3245-0.07618-0.42168-0.26613-0.0689-0.13469-0.0796-0.18373-0.0796-0.36897 0-0.20846 6e-3 -0.22692 0.2341-0.77876 0.43983-1.0618 0.83828-2.1676 0.93017-2.5807l0.0465-0.20929 0.4532 0.01809c0.24908 0.0097 0.55995 0.03615 0.69092 0.05891 0.36813 0.06397 0.58963 0.07555 0.66611 0.03462 0.0959-0.05131 0.14056-0.15868 0.14056-0.33693v-0.1571l-0.18345-0.06821c-0.38871-0.14408-0.79696-0.22386-1.2676-0.24753l-0.32659-0.01654 0.0139-0.06821c0.0416-0.21031 0.0752-0.64658 0.0651-0.84026-0.0159-0.30209-0.0286-0.31316-0.35915-0.31316zm16.973 2.6613c-0.0178 1.42e-4 -0.0359 7.61e-4 -0.0543 0.0015-0.18449 0.0079-0.24638 0.02422-0.42737 0.11059-0.75518 0.36037-1.4776 1.2981-1.7213 2.235-0.21716 0.83491-0.10521 1.4958 0.29249 1.727 0.11566 0.06724 0.15852 0.07678 0.3421 0.077 0.11549 2.65e-4 0.28844-0.01922 0.38395-0.04289 0.34886-0.08643 0.76926-0.33639 0.971-0.57774 0.055-0.0658 0.10787-0.11989 0.11731-0.11989 9e-3 0 0.0246 0.06262 0.0336 0.13901s0.0553 0.21556 0.10283 0.30954c0.12119 0.23954 0.20462 0.2801 0.57568 0.27698 0.46683-0.0039 0.61953-0.09448 1.1017-0.65474 0.32558-0.37828 1.0352-1.3218 1.0981-1.4599 0.0548-0.12032 0.0651-0.3571 0.0176-0.40463-0.0333-0.03334-0.22463-0.04333-0.29714-0.0155-0.0233 0.0089-0.20601 0.22603-0.40566 0.48266-0.60575 0.77862-1.0565 1.2723-1.2573 1.3772-0.13892 0.07258-0.28371-0.08067-0.28371-0.30024 0-0.05283 0.0709-0.43169 0.1571-0.84233 0.21184-1.0089 0.23978-1.1657 0.23978-1.3317v-0.14263h-0.16175c-0.15522 0-0.16099-0.0023-0.14469-0.05943 0.13831-0.48454-0.12856-0.78938-0.68006-0.78496zm-0.18191 0.7214c0.0151-0.0021 0.0245 0.0047 0.0336 0.0186 0.0299 0.04544 8e-3 0.19343-0.0449 0.29404-0.0206 0.0398-0.0372 0.09826-0.0372 0.13022 0 0.05608 7e-3 0.05778 0.19534 0.04186l0.19482-0.01654-0.0372 0.20412c-0.0206 0.11244-0.0858 0.40331-0.1447 0.64647-0.12283 0.50706-0.16638 0.59034-0.46147 0.88108-0.19919 0.19625-0.42312 0.34645-0.55397 0.37104-0.0535 0.01005-0.10616-0.0024-0.16278-0.03772-0.16547-0.10312-0.17248-0.47147-0.0191-1.0041 0.15759-0.54716 0.59726-1.2375 0.93896-1.4743 0.0502-0.03477 0.0793-0.05209 0.0987-0.05478zm-14.003 0.0036c6e-3 -6.8e-4 0.0106-2.4e-5 0.014 0.0021 0.0362 0.02236 0.0254 0.20263-0.0165 0.27595-0.0208 0.03638-0.0383 0.10052-0.0388 0.14263l-5.2e-4 0.07648 0.18501-0.01705c0.1542-0.01433 0.185-0.01063 0.185 0.02222 0 0.149-0.25863 1.1971-0.33022 1.3379-0.0677 0.13306-0.53522 0.58428-0.67747 0.65371-0.18817 0.09185-0.26461 0.09901-0.34779 0.03359-0.0978-0.07695-0.13584-0.23327-0.11575-0.47697 0.0193-0.23388 0.11933-0.62338 0.22324-0.86972 0.10248-0.24297 0.38606-0.69012 0.55966-0.88263 0.14447-0.16022 0.30452-0.2916 0.36018-0.29817zm8.0507 0.05943c0.0957-3.54e-4 0.17698 0.07686 0.24753 0.23461 0.12976 0.29014 0.15108 0.57772 0.0687 0.93431l-0.031 0.13436-0.13436-0.0021c-0.0739-1e-3 -0.19103-0.01897-0.26045-0.04031-0.27897-0.08576-0.44287-0.35056-0.44287-0.71624 0-0.15525 7e-3 -0.17464 0.0971-0.2744 0.10374-0.11483 0.27254-0.22516 0.40101-0.262 0.0187-0.0054 0.0365-0.0082 0.0543-0.0083zm-1.0392 1.4258 0.0599 0.09612c0.0816 0.1321 0.29335 0.31802 0.44597 0.39119 0.0919 0.04404 0.18997 0.06411 0.35812 0.07286 0.12733 0.0066 0.23151 0.01682 0.23151 0.02274 0 0.05486-0.18335 0.34897-0.29042 0.46612-0.19931 0.21808-0.42166 0.31308-0.57464 0.24546-0.11272-0.04983-0.23353-0.2222-0.27492-0.39222-0.0434-0.17831-0.0387-0.60354 8e-3 -0.77153zm-36.952-28.965v19.873h2.375c1.4822 0 2.4879-0.01072 2.6768-0.02842 0.87201-0.08168 1.5768-0.4034 2.1818-0.99684 0.51311-0.5033 0.82236-1.0907 0.9586-1.819 0.0476-0.25415 0.0496-0.53338 0.0496-7.0905 0-6.5625-2e-3 -6.8367-0.0496-7.091-0.27239-1.4529-1.3362-2.5017-2.821-2.7812-0.22817-0.04296-0.48745-0.04806-2.8112-0.05633zm1.879 1.6929 1.3823 0.0088 1.3823 0.0093 0.23823 0.07338c0.73035 0.22517 1.2297 0.74259 1.4221 1.4728l0.0594 0.22479v12.885l-0.0579 0.22738c-0.10898 0.42685-0.27609 0.71784-0.57103 0.99374-0.21368 0.19989-0.43259 0.3341-0.70796 0.4346-0.39659 0.14474-0.54561 0.15658-1.9079 0.15658h-1.2397v-8.2429z" fill="#fefefe" stroke="#000" stroke-width=".2"/></g></svg>
